<svg width="1080" height="452" viewBox="0 0 1080 452" fill="none" xmlns="http://www.w3.org/2000/svg">
<path d="M441.63 24.9101C442.14 25.1101 442.67 25.3101 443.18 25.5301C445.44 26.3901 447.68 27.37 449.87 28.39C452.53 29.63 455.15 30.94 457.76 32.31C459.89 33.44 462.02 34.64 464.12 35.83C479.75 44.81 494.73 55.47 510.93 62.92C513.15 63.92 515.39 64.87 517.65 65.76C520.6 66.91 523.59 67.93 526.65 68.8C528.84 69.42 531.04 69.97 533.3 70.42C537.18 71.22 541.17 71.75 545.27 71.95C564.55 72.9 586.41 64.1501 594.45 45.8401C580.62 65.6101 555.37 68.96 533.34 63.11C528.55 61.85 523.9 60.12 519.55 58.06C517.16 57.04 514.81 55.9301 512.48 54.7801C498.16 47.6701 484.82 38.42 470.77 30.64C468.58 29.44 466.36 28.27 464.12 27.12C461.48 25.79 458.8 24.5301 456.05 23.3501C453.72 22.3301 451.33 21.3801 448.91 20.5301C447.18 19.9101 445.45 19.33 443.68 18.8C425.37 13.26 403.21 13.44 387.67 25.58C404.58 16.8 424.4 18.5801 441.62 24.9101H441.63Z" fill="#E0B382"/>
<path d="M419.13 115.46C419.55 84.5798 432.54 57.0298 452.62 37.1298C449.96 35.7798 447.3 34.4898 444.6 33.3398C413.15 64.6598 400.62 113.53 420.73 160.04C445.38 217.82 514.29 245.24 572.01 220.97C580.94 217.42 589.3 212.68 596.9 206.98C590.14 211.88 579.06 215.96 571.25 219.13C498.42 249.7 417.6 194.04 419.13 115.46Z" fill="#E0B382"/>
<path d="M528.32 0.0201905C503.38 -0.39981 480.84 6.69018 462.33 18.8802C464.99 20.1002 467.63 21.4302 470.2 22.8002C498.73 3.92016 535.56 -2.0198 570.9 12.6502C611.93 28.9202 640.23 71.3402 639.83 115.45C639.9 120.31 639.62 125.18 639.01 130.01C638.4 134.81 637.46 139.58 636.21 144.26C634.96 148.93 633.41 153.53 631.56 158C629.72 162.48 627.59 166.83 625.2 171.04C620.62 179.1 614.73 186.79 606.84 191.92C602.71 194.61 598.09 196.27 593.15 196.54C590.45 196.68 587.75 196.38 585.13 195.73C581.01 194.71 577.07 193.06 573.22 191.31C564.09 187.16 555.63 181.66 547.62 175.64C540.18 170.05 533.11 163.99 526.05 157.92C526.25 130.5 526.45 103.09 526.64 75.6702C523.72 74.7602 520.81 73.8602 517.89 72.9502C518.61 100.17 519.33 127.4 520.05 154.62C510.48 149.54 499.98 145.57 489.14 145.76C478.31 145.95 467.1 150.95 461.69 160.33C458.85 165.25 457.76 171.09 458.26 176.75C458.73 182 460.58 187.17 463.8 191.35C472.28 202.38 489.31 204.44 501.65 198C513.98 191.56 521.74 178.33 524.43 164.68C534.64 174.1 545.55 182.76 557.04 190.56C564.91 195.9 574.4 198.81 583.82 199.73C592.32 200.56 601.5 198.86 608.95 194.34C616.31 189.88 621.28 182.64 625.76 175.48C630.83 167.38 634.91 158.66 637.85 149.56C640.79 140.44 642.57 130.94 643.05 121.37C643.15 119.39 643.15 117.42 643.18 115.44C643.91 52.8902 590.8 -0.109829 528.32 0.00017092V0.0201905ZM518.65 165.51C515.33 179.69 505.48 195.65 489.81 197.95C474.68 200.17 458.43 189.18 460.55 172.68C461.65 164.13 467.29 156.21 475.22 152.72C482.44 149.54 490.56 149.5 498.13 151.33C501.99 152.26 505.73 153.66 509.31 155.38C510.57 155.99 519.59 160.12 519.45 161.18C519.25 162.64 518.98 164.08 518.65 165.5V165.51Z" fill="#E0B382"/>
<path d="M216.54 425.3C214.69 424.22 212.46 423.67 209.86 423.67H201.39V450.96H209.38C212.12 450.96 214.45 450.41 216.37 449.32C218.29 448.23 219.76 446.66 220.77 444.61C221.78 442.56 222.28 440.11 222.28 437.25C222.28 434.39 221.79 431.99 220.8 429.96C219.81 427.94 218.4 426.38 216.54 425.3ZM218.68 443.38C217.89 445.09 216.7 446.41 215.12 447.34C213.54 448.26 211.58 448.73 209.23 448.73H203.87V425.92H209.71C211.92 425.92 213.78 426.37 215.29 427.28C216.8 428.19 217.93 429.49 218.7 431.18C219.47 432.88 219.86 434.9 219.87 437.26C219.87 439.63 219.47 441.67 218.68 443.39V443.38Z" fill="#E0B382"/>
<path d="M242.05 423.68H239.56V450.97H242.05V423.68Z" fill="#E0B382"/>
<path d="M274.22 438.91C275.52 438.23 276.5 437.28 277.16 436.06C277.82 434.84 278.15 433.44 278.15 431.85C278.15 430.26 277.82 428.85 277.16 427.62C276.5 426.39 275.52 425.43 274.22 424.73C272.92 424.03 271.3 423.68 269.36 423.68H260.55V450.97H263.04V439.94H269.4C269.76 439.94 270.1 439.92 270.44 439.89L276.42 450.97H279.3L273 439.42C273.43 439.28 273.85 439.12 274.23 438.92L274.22 438.91ZM269.33 437.65H263.04V425.91H269.29C270.73 425.91 271.92 426.15 272.87 426.64C273.82 427.13 274.52 427.82 274.99 428.71C275.46 429.6 275.7 430.64 275.7 431.83C275.7 433.02 275.47 434.05 275 434.92C274.53 435.79 273.83 436.46 272.88 436.93C271.93 437.4 270.75 437.64 269.33 437.64V437.65Z" fill="#E0B382"/>
<path d="M297.97 438.43H310.47V436.19H297.97V425.92H311.31V423.68H295.48V450.96H311.57V448.73H297.97V438.43Z" fill="#E0B382"/>
<path d="M331.49 423.68H329V450.97H331.49V423.68Z" fill="#E0B382"/>
<path d="M348.34 425.92H356.99V450.96H359.48V425.92H368.12V423.68H348.34V425.92Z" fill="#E0B382"/>
<path d="M401.65 425.03C399.88 423.88 397.84 423.3 395.54 423.3C393.24 423.3 391.21 423.88 389.44 425.03C387.66 426.18 386.27 427.81 385.26 429.91C384.25 432.01 383.75 434.48 383.75 437.32C383.75 440.16 384.25 442.63 385.26 444.73C386.27 446.83 387.66 448.46 389.43 449.61C391.2 450.76 393.24 451.34 395.54 451.34C397.84 451.34 399.88 450.77 401.65 449.61C403.42 448.46 404.81 446.83 405.83 444.73C406.84 442.63 407.35 440.16 407.35 437.32C407.35 434.48 406.84 432.01 405.83 429.91C404.82 427.81 403.42 426.18 401.65 425.03ZM403.71 443.6C402.89 445.35 401.78 446.68 400.36 447.6C398.94 448.52 397.34 448.98 395.54 448.98C393.74 448.98 392.14 448.52 390.73 447.59C389.32 446.66 388.2 445.33 387.39 443.59C386.57 441.85 386.16 439.76 386.16 437.32C386.16 434.88 386.57 432.77 387.39 431.03C388.21 429.29 389.33 427.96 390.74 427.03C392.15 426.11 393.75 425.64 395.54 425.64C397.33 425.64 398.94 426.1 400.35 427.03C401.76 427.95 402.88 429.29 403.69 431.03C404.51 432.78 404.92 434.87 404.92 437.31C404.92 439.75 404.52 441.85 403.71 443.59V443.6Z" fill="#E0B382"/>
<path d="M448.92 423.68H446.43V450.97H448.92V423.68Z" fill="#E0B382"/>
<path d="M486.22 446.55H486.01L469.83 423.68H467.42V450.96H469.91V428.11H470.13L486.25 450.96H488.67V423.68H486.22V446.55Z" fill="#E0B382"/>
<path d="M505.52 425.92H514.17V450.96H516.66V425.92H525.31V423.68H505.52V425.92Z" fill="#E0B382"/>
<path d="M544.65 438.43H557.15V436.19H544.65V425.92H557.99V423.68H542.16V450.96H558.25V448.73H544.65V438.43Z" fill="#E0B382"/>
<path d="M589.34 438.91C590.64 438.23 591.61 437.28 592.28 436.06C592.94 434.84 593.27 433.44 593.27 431.85C593.27 430.26 592.94 428.85 592.28 427.62C591.62 426.39 590.64 425.43 589.34 424.73C588.04 424.03 586.42 423.68 584.48 423.68H575.67V450.97H578.16V439.94H584.51C584.87 439.94 585.21 439.92 585.55 439.89L591.53 450.97H594.41L588.11 439.42C588.54 439.28 588.96 439.12 589.34 438.92V438.91ZM584.46 437.65H578.17V425.91H584.42C585.86 425.91 587.05 426.15 588 426.64C588.95 427.13 589.66 427.82 590.13 428.71C590.6 429.6 590.84 430.64 590.84 431.83C590.84 433.02 590.61 434.05 590.14 434.92C589.67 435.79 588.97 436.46 588.02 436.93C587.07 437.4 585.89 437.64 584.47 437.64L584.46 437.65Z" fill="#E0B382"/>
<path d="M629.4 446.55H629.19L613.02 423.68H610.6V450.96H613.1V428.11H613.31L629.43 450.96H631.86V423.68H629.4V446.55Z" fill="#E0B382"/>
<path d="M657.71 423.68L647.78 450.97H650.39L653.31 442.75H664.76L667.68 450.97H670.29L660.37 423.68H657.7H657.71ZM654.12 440.5L658.95 426.91H659.14L663.97 440.5H654.12Z" fill="#E0B382"/>
<path d="M692.09 426.99C693.51 426.09 695.08 425.64 696.8 425.64C697.88 425.64 698.87 425.8 699.8 426.13C700.72 426.46 701.55 426.92 702.28 427.52C703.01 428.11 703.61 428.81 704.1 429.61C704.58 430.4 704.92 431.27 705.11 432.2H707.62C707.4 430.94 706.98 429.77 706.38 428.7C705.77 427.63 705 426.68 704.06 425.87C703.12 425.06 702.05 424.43 700.83 423.98C699.61 423.53 698.28 423.31 696.82 423.31C694.53 423.31 692.5 423.89 690.72 425.04C688.94 426.19 687.55 427.81 686.54 429.91C685.53 432.01 685.03 434.48 685.03 437.33C685.03 440.18 685.53 442.65 686.54 444.75C687.55 446.85 688.94 448.47 690.72 449.62C692.5 450.77 694.53 451.35 696.82 451.35C698.28 451.35 699.61 451.12 700.83 450.67C702.05 450.22 703.12 449.59 704.06 448.78C705 447.97 705.77 447.03 706.38 445.95C706.99 444.87 707.4 443.71 707.62 442.45H705.11C704.92 443.38 704.59 444.25 704.1 445.05C703.62 445.85 703.01 446.54 702.28 447.14C701.55 447.73 700.73 448.19 699.8 448.52C698.88 448.85 697.88 449.01 696.8 449.01C695.08 449.01 693.51 448.56 692.09 447.67C690.67 446.78 689.54 445.46 688.69 443.73C687.84 442 687.42 439.87 687.42 437.34C687.42 434.81 687.85 432.7 688.69 430.96C689.54 429.22 690.67 427.91 692.09 427.01V426.99Z" fill="#E0B382"/>
<path d="M727.21 423.68H724.72V450.97H727.21V423.68Z" fill="#E0B382"/>
<path d="M762.39 425.03C760.62 423.88 758.58 423.3 756.28 423.3C753.98 423.3 751.96 423.88 750.18 425.03C748.4 426.18 747.01 427.81 746 429.91C744.99 432.01 744.49 434.48 744.49 437.32C744.49 440.16 744.99 442.63 746 444.73C747.01 446.83 748.4 448.46 750.17 449.61C751.94 450.76 753.98 451.34 756.28 451.34C758.58 451.34 760.62 450.77 762.39 449.61C764.16 448.46 765.56 446.83 766.57 444.73C767.58 442.63 768.09 440.16 768.09 437.32C768.09 434.48 767.58 432.01 766.57 429.91C765.56 427.81 764.17 426.18 762.39 425.03ZM764.45 443.6C763.63 445.35 762.51 446.68 761.1 447.6C759.68 448.52 758.08 448.98 756.28 448.98C754.48 448.98 752.88 448.52 751.47 447.59C750.06 446.66 748.94 445.33 748.13 443.59C747.31 441.85 746.9 439.76 746.9 437.32C746.9 434.88 747.31 432.77 748.13 431.03C748.95 429.29 750.07 427.96 751.48 427.03C752.89 426.11 754.49 425.64 756.27 425.64C758.05 425.64 759.67 426.1 761.08 427.03C762.49 427.95 763.61 429.29 764.42 431.03C765.24 432.78 765.64 434.87 765.64 437.31C765.64 439.75 765.24 441.85 764.43 443.59L764.45 443.6Z" fill="#E0B382"/>
<path d="M804.16 446.55H803.95L787.78 423.68H785.36V450.96H787.86V428.11H788.07L804.19 450.96H806.61V423.68H804.16V446.55Z" fill="#E0B382"/>
<path d="M832.47 423.68L822.54 450.97H825.15L828.07 442.75H839.52L842.44 450.97H845.05L835.13 423.68H832.46H832.47ZM828.88 440.5L833.71 426.91H833.9L838.73 440.5H828.88Z" fill="#E0B382"/>
<path d="M863.48 448.73V423.68H860.99V450.96H876.49V448.73H863.48Z" fill="#E0B382"/>
<path d="M164.81 358.27L149.6 334.49C152.31 333.91 154.87 332.99 157.22 331.77C159.64 330.51 161.79 328.89 163.6 326.97C165.41 325.05 166.84 322.79 167.86 320.25C168.87 317.71 169.39 314.92 169.39 311.95C169.39 307.75 168.54 304.13 166.88 301.2C165.21 298.26 162.97 295.84 160.22 293.99C157.47 292.15 154.3 290.79 150.8 289.96C147.3 289.13 143.66 288.71 139.99 288.71H114.35L114.29 289.09C116.24 289.72 117.59 290.81 118.28 292.34C118.99 293.89 119.34 295.65 119.34 297.56V355.77C119.34 357.61 118.98 359.39 118.27 361.05C117.58 362.68 116.23 363.83 114.28 364.46L114.34 364.84H132.08L132.14 364.46C130.32 363.83 129.01 362.74 128.25 361.2C127.47 359.65 127.08 357.93 127.08 356.1L127.05 347.23C128.97 344.38 131.26 342.18 133.86 340.69C136.42 339.21 139.3 337.86 142.39 336.65L160.54 364.84H172.66L172.73 364.46C171.17 363.89 169.68 363.07 168.29 362C166.91 360.93 165.74 359.68 164.82 358.26L164.81 358.27ZM140.71 335.37C138.15 336.45 135.63 337.71 133.22 339.11C130.94 340.44 128.88 342.21 127.08 344.4V290.41H139.54C146.23 290.41 151.56 292.34 155.36 296.14C159.16 299.94 161.09 305.27 161.09 311.96C161.09 315.95 160.5 319.26 159.32 321.78C158.15 324.3 156.6 326.41 154.72 328.04C152.83 329.68 150.65 331.05 148.22 332.12C145.77 333.2 143.26 334.28 140.7 335.36L140.71 335.37Z" fill="#FFFBF3"/>
<path d="M231.29 288.72L231.23 289.1C233.49 289.81 235.32 290.95 236.66 292.5C237.99 294.04 238.67 296.04 238.67 298.43V349.32L195.37 288.72H181.74L181.68 289.1C183.94 289.88 185.75 291.08 187.06 292.66C188.36 294.24 189.02 296.29 189.02 298.76V355.13C189.02 357.52 188.34 359.52 187.01 361.06C185.67 362.61 183.84 363.76 181.58 364.46L181.64 364.84H198.08L198.14 364.46C195.87 363.75 194.01 362.63 192.6 361.11C191.2 359.61 190.49 357.59 190.49 355.13V295.26L240.37 365.26V298.43C240.37 296.04 241.01 294.04 242.27 292.5C243.54 290.95 245.33 289.81 247.59 289.1L247.53 288.72H231.3H231.29Z" fill="#FFFBF3"/>
<path d="M311.78 361.18C310.61 359.54 309.69 357.85 309.05 356.14L283.01 287.39L256.64 356.35C256 357.91 254.93 359.53 253.43 361.16C251.95 362.79 250.37 363.9 248.75 364.46L248.81 364.84H264.61L264.67 364.46C263.05 363.9 261.63 363.07 260.46 362.01C259.32 360.97 258.74 359.53 258.74 357.72C258.74 356.95 258.83 356.18 259 355.44C259.17 354.71 259.41 353.97 259.7 353.25L266.68 335.09H292.92C293.35 336.11 294 337.71 294.87 339.89C295.77 342.16 296.71 344.54 297.68 347.03C298.65 349.5 299.5 351.84 300.22 354C300.93 356.13 301.29 357.61 301.29 358.37C301.29 359.62 300.88 360.86 300.08 362.05C299.28 363.23 298.27 364.05 297.09 364.46L297.16 364.84H316.2L316.26 364.46C314.43 363.9 312.92 362.79 311.76 361.18H311.78ZM267.17 333.51L279.76 300.51L292.14 333.51H267.18H267.17Z" fill="#FFFBF3"/>
<path d="M371.39 288.72L371.33 289.1C373.59 289.81 375.42 290.95 376.76 292.5C378.09 294.04 378.77 296.04 378.77 298.43V349.32L335.47 288.72H321.84L321.78 289.1C324.04 289.88 325.85 291.08 327.16 292.66C328.46 294.24 329.12 296.29 329.12 298.76V355.13C329.12 357.52 328.44 359.52 327.11 361.06C325.77 362.61 323.94 363.76 321.68 364.46L321.74 364.84H338.18L338.24 364.46C335.97 363.75 334.11 362.63 332.7 361.11C331.3 359.61 330.59 357.59 330.59 355.13V295.26L380.47 365.26V298.43C380.47 296.04 381.11 294.04 382.37 292.5C383.64 290.95 385.43 289.81 387.69 289.1L387.63 288.72H371.4H371.39Z" fill="#FFFBF3"/>
<path d="M462.25 326.789C462.25 321.599 461.21 316.62 459.15 312C457.09 307.38 454.29 303.3 450.83 299.88C447.37 296.45 443.25 293.709 438.6 291.719C433.94 289.729 428.95 288.729 423.76 288.729H395.85L395.8 289.12C397.75 289.68 399.09 290.789 399.78 292.419C400.49 294.089 400.85 295.859 400.85 297.699V355.909C400.85 357.749 400.51 359.529 399.84 361.189C399.18 362.819 397.82 363.929 395.8 364.479L395.85 364.87H425.06C430.33 364.87 435.29 363.86 439.8 361.88C444.31 359.9 448.28 357.129 451.6 353.669C454.92 350.199 457.55 346.129 459.43 341.549C461.31 336.969 462.26 332.009 462.26 326.819L462.25 326.789ZM450.95 341.75C449.24 346.17 446.78 350.009 443.64 353.149C440.5 356.289 436.67 358.749 432.24 360.459C427.81 362.169 422.78 363.039 417.27 363.039H408.59V290.399H417.27C422.77 290.399 427.83 291.269 432.29 292.979C436.75 294.689 440.6 297.149 443.74 300.289C446.88 303.429 449.32 307.28 451 311.74C452.68 316.21 453.53 321.26 453.53 326.76C453.53 332.26 452.66 337.299 450.95 341.729V341.75Z" fill="#FFFBF3"/>
<path d="M522.42 361.18C521.25 359.54 520.33 357.85 519.69 356.14L493.65 287.39L467.28 356.35C466.64 357.91 465.57 359.53 464.07 361.16C462.59 362.79 461.01 363.9 459.39 364.46L459.45 364.84H475.25L475.31 364.46C473.69 363.9 472.27 363.07 471.1 362.01C469.96 360.97 469.38 359.53 469.38 357.72C469.38 356.95 469.47 356.18 469.64 355.44C469.81 354.71 470.05 353.97 470.34 353.25L477.32 335.09H503.56C503.99 336.11 504.64 337.71 505.51 339.89C506.41 342.16 507.35 344.54 508.32 347.03C509.29 349.5 510.14 351.84 510.86 354C511.57 356.13 511.93 357.61 511.93 358.37C511.93 359.62 511.52 360.86 510.72 362.05C509.92 363.23 508.91 364.05 507.73 364.46L507.8 364.84H526.84L526.9 364.46C525.07 363.9 523.56 362.79 522.4 361.18H522.42ZM477.81 333.51L490.4 300.51L502.78 333.51H477.82H477.81Z" fill="#FFFBF3"/>
<path d="M565.22 288.72L562.48 301.32L562.84 301.46C564.62 298.19 566.96 295.53 569.81 293.58C572.65 291.63 576.03 290.64 579.87 290.64H588.87L588.76 355.79C588.76 357.7 588.42 359.5 587.75 361.12C587.09 362.71 585.73 363.84 583.71 364.47L583.77 364.85H601.51L601.57 364.47C599.61 363.84 598.27 362.7 597.58 361.06C596.87 359.4 596.51 357.62 596.51 355.78V290.63H605.73C609.42 290.63 612.79 291.62 615.74 293.57C618.69 295.53 621.05 298.14 622.76 301.34L623.13 301.2L620.28 288.71H565.22V288.72Z" fill="#FFFBF3"/>
<path d="M674.77 360.26C671.35 362.18 667.49 363.16 663.29 363.16H644.99V326.98H657.56C659.83 326.98 661.91 327.43 663.75 328.31C665.57 329.18 666.88 330.8 667.65 333.12L668.03 333.06V319.1L667.65 319.04C666.87 321.36 665.56 323 663.74 323.9C661.9 324.82 659.82 325.29 657.55 325.29H644.98V290.41H663.39C671.78 290.41 678.09 294.27 682.15 301.88L682.52 301.74L679.56 288.71H632.23L632.17 289.09C634.19 289.72 635.55 290.81 636.21 292.33C636.88 293.89 637.22 295.64 637.22 297.55V355.76C637.22 357.67 636.88 359.47 636.21 361.09C635.55 362.68 634.19 363.81 632.17 364.44L632.23 364.82H680.1L683.27 351.79L682.91 351.65C680.92 355.42 678.18 358.31 674.77 360.23V360.26Z" fill="#FFFBF3"/>
<path d="M757.88 299.599C754.42 296.139 750.3 293.379 745.65 291.389C740.99 289.399 735.96 288.399 730.7 288.399C725.44 288.399 720.4 289.409 715.75 291.389C711.1 293.369 706.98 296.139 703.52 299.599C700.06 303.059 697.29 307.179 695.31 311.829C693.33 316.479 692.32 321.509 692.32 326.779C692.32 332.049 693.33 337.079 695.31 341.729C697.29 346.379 700.06 350.499 703.52 353.959C706.99 357.429 711.1 360.189 715.75 362.169C720.4 364.159 725.43 365.159 730.7 365.159C735.97 365.159 741 364.149 745.65 362.169C750.3 360.189 754.42 357.429 757.88 353.959C761.34 350.499 764.1 346.379 766.09 341.729C768.07 337.069 769.08 332.039 769.08 326.779C769.08 321.519 768.07 316.489 766.09 311.829C764.1 307.169 761.34 303.059 757.88 299.599ZM758.74 340.799C757.52 344.949 755.71 348.769 753.36 352.159C751.01 355.549 748.08 358.35 744.65 360.49C741.24 362.62 737.23 363.709 732.75 363.709C727.98 363.709 723.61 362.5 719.76 360.12C715.9 357.72 712.55 354.61 709.81 350.87C707.06 347.12 704.92 342.889 703.45 338.319C701.99 333.739 701.24 329.249 701.24 324.959C701.24 321.029 701.86 316.949 703.07 312.839C704.28 308.739 706.09 304.929 708.45 301.539C710.81 298.149 713.75 295.349 717.21 293.209C720.66 291.079 724.65 289.99 729.06 289.99C733.9 289.99 738.33 291.179 742.21 293.529C746.1 295.879 749.45 298.959 752.16 302.669C754.87 306.389 756.97 310.589 758.4 315.159C759.83 319.739 760.56 324.27 760.56 328.63C760.56 332.55 759.94 336.649 758.73 340.799H758.74Z" fill="#FFFBF3"/>
<path d="M831.88 299.87C828.42 296.44 824.3 293.7 819.65 291.71C814.99 289.72 810 288.72 804.81 288.72H776.9L776.85 289.11C778.8 289.67 780.14 290.78 780.83 292.41C781.54 294.08 781.9 295.85 781.9 297.69V355.9C781.9 357.74 781.56 359.52 780.89 361.18C780.23 362.81 778.87 363.92 776.85 364.47L776.9 364.86H806.11C811.38 364.86 816.34 363.85 820.85 361.87C825.36 359.89 829.33 357.12 832.65 353.66C835.97 350.19 838.6 346.12 840.48 341.54C842.36 336.96 843.31 332 843.31 326.81C843.31 321.62 842.27 316.64 840.21 312.02C838.15 307.4 835.36 303.33 831.89 299.9L831.88 299.87ZM831.99 341.75C830.28 346.18 827.82 350.01 824.68 353.15C821.54 356.29 817.71 358.75 813.28 360.46C808.85 362.17 803.81 363.04 798.31 363.04H789.64V290.4H798.31C803.81 290.4 808.87 291.27 813.33 292.98C817.79 294.69 821.64 297.15 824.78 300.29C827.92 303.43 830.36 307.28 832.04 311.74C833.72 316.21 834.57 321.26 834.57 326.76C834.57 332.26 833.7 337.3 831.99 341.73V341.75Z" fill="#FFFBF3"/>
<path d="M917.02 299.599C913.56 296.139 909.44 293.379 904.79 291.389C900.13 289.399 895.1 288.399 889.84 288.399C884.58 288.399 879.54 289.409 874.89 291.389C870.24 293.369 866.12 296.139 862.66 299.599C859.2 303.059 856.43 307.179 854.45 311.829C852.47 316.479 851.46 321.509 851.46 326.779C851.46 332.049 852.47 337.079 854.45 341.729C856.43 346.379 859.2 350.499 862.66 353.959C866.13 357.429 870.24 360.189 874.89 362.169C879.54 364.159 884.57 365.159 889.84 365.159C895.11 365.159 900.14 364.149 904.79 362.169C909.44 360.189 913.56 357.429 917.02 353.959C920.48 350.499 923.24 346.379 925.23 341.729C927.21 337.069 928.22 332.039 928.22 326.779C928.22 321.519 927.21 316.489 925.23 311.829C923.24 307.169 920.48 303.059 917.02 299.599ZM917.88 340.799C916.66 344.949 914.85 348.769 912.5 352.159C910.15 355.549 907.22 358.35 903.79 360.49C900.38 362.62 896.37 363.709 891.89 363.709C887.12 363.709 882.75 362.5 878.9 360.12C875.04 357.72 871.69 354.61 868.95 350.87C866.2 347.12 864.06 342.889 862.59 338.319C861.13 333.739 860.38 329.249 860.38 324.959C860.38 321.029 861 316.949 862.21 312.839C863.42 308.739 865.23 304.929 867.59 301.539C869.95 298.149 872.89 295.349 876.35 293.209C879.8 291.079 883.79 289.99 888.2 289.99C893.04 289.99 897.47 291.179 901.35 293.529C905.24 295.879 908.59 298.959 911.3 302.669C914.01 306.389 916.11 310.589 917.54 315.159C918.97 319.739 919.7 324.27 919.7 328.63C919.7 332.55 919.08 336.649 917.87 340.799H917.88Z" fill="#FFFBF3"/>
<path d="M990.08 362C988.71 360.94 987.53 359.68 986.61 358.27L971.4 334.49C974.11 333.92 976.68 333 979.01 331.78C981.44 330.5 983.58 328.9 985.41 326.97C987.22 325.05 988.65 322.79 989.67 320.26C990.67 317.73 991.18 314.92 991.18 311.96C991.18 307.76 990.34 304.15 988.67 301.21C987 298.27 984.77 295.85 982.02 294.01C979.27 292.17 976.09 290.81 972.6 289.97C969.09 289.15 965.46 288.71 961.79 288.71H936.14L936.08 289.1C938.04 289.73 939.38 290.83 940.06 292.36C940.77 293.91 941.14 295.66 941.14 297.58V355.78C941.14 357.62 940.77 359.39 940.06 361.06C939.37 362.69 938.04 363.85 936.08 364.47L936.14 364.84H953.88L953.96 364.47C952.14 363.84 950.82 362.74 950.06 361.21C949.29 359.66 948.9 357.93 948.9 356.11L948.86 347.22C950.78 344.37 953.08 342.18 955.67 340.69C958.22 339.22 961.11 337.86 964.21 336.65L982.34 364.85H994.47L994.53 364.48C992.98 363.91 991.49 363.09 990.1 362.01L990.08 362ZM962.51 335.37C959.96 336.45 957.43 337.71 955.03 339.12C952.75 340.43 950.67 342.22 948.89 344.4V290.42H961.35C968.04 290.42 973.36 292.34 977.17 296.15C980.98 299.96 982.9 305.27 982.9 311.97C982.9 315.95 982.31 319.27 981.13 321.78C979.95 324.31 978.4 326.41 976.52 328.04C974.64 329.69 972.46 331.06 970.03 332.12C967.58 333.2 965.09 334.3 962.52 335.38L962.51 335.37Z" fill="#FFFBF3"/>
<path d="M1077.02 311.829C1075.03 307.169 1072.27 303.059 1068.81 299.599C1065.35 296.139 1061.23 293.379 1056.58 291.389C1051.92 289.399 1046.89 288.399 1041.63 288.399C1036.37 288.399 1031.33 289.409 1026.68 291.389C1022.03 293.369 1017.91 296.139 1014.45 299.599C1010.99 303.059 1008.22 307.179 1006.24 311.829C1004.26 316.479 1003.25 321.509 1003.25 326.779C1003.25 332.049 1004.26 337.079 1006.24 341.729C1008.22 346.379 1010.99 350.499 1014.45 353.959C1017.92 357.429 1022.03 360.189 1026.68 362.169C1031.33 364.159 1036.36 365.159 1041.63 365.159C1046.9 365.159 1051.93 364.149 1056.58 362.169C1061.23 360.189 1065.35 357.429 1068.81 353.959C1072.27 350.499 1075.03 346.379 1077.02 341.729C1079 337.069 1080.01 332.039 1080.01 326.779C1080.01 321.519 1079 316.489 1077.02 311.829ZM1069.67 340.799C1068.45 344.949 1066.64 348.769 1064.29 352.159C1061.94 355.549 1059.01 358.35 1055.58 360.49C1052.17 362.62 1048.16 363.709 1043.68 363.709C1038.91 363.709 1034.54 362.5 1030.69 360.12C1026.83 357.72 1023.48 354.61 1020.74 350.87C1017.99 347.12 1015.85 342.889 1014.38 338.319C1012.92 333.739 1012.17 329.249 1012.17 324.959C1012.17 321.029 1012.79 316.949 1014 312.839C1015.21 308.739 1017.02 304.929 1019.38 301.539C1021.74 298.149 1024.68 295.349 1028.14 293.209C1031.59 291.079 1035.58 289.99 1039.99 289.99C1044.83 289.99 1049.26 291.179 1053.14 293.529C1057.03 295.879 1060.38 298.959 1063.09 302.669C1065.8 306.389 1067.9 310.589 1069.33 315.159C1070.76 319.739 1071.49 324.27 1071.49 328.63C1071.49 332.55 1070.87 336.649 1069.66 340.799H1069.67Z" fill="#FFFBF3"/>
<path d="M14.0901 360.86C13.3501 359.25 12.99 357.58 12.99 355.73V290.81H31.1001C39.3901 290.81 45.6101 294.61 49.5901 302.12L50.3201 301.85L47.3601 288.72H0.120117L0 289.48C1.94 290.09 3.2499 291.14 3.8999 292.6C4.5599 294.13 4.88013 295.81 4.88013 297.73V355.62C4.88013 357.51 4.5499 359.27 3.8999 360.86C3.2599 362.39 1.95001 363.47 0.0100098 364.07L0.130127 364.83H17.78L17.8999 364.07C16.0899 363.47 14.8101 362.38 14.0901 360.84V360.86Z" fill="#FFFBF3"/>
<path d="M96.6699 359.919C93.2999 361.819 89.4901 362.779 85.3501 362.779H67.3501V327.179H79.6499C81.8999 327.179 83.89 327.61 85.73 328.49C87.49 329.34 88.77 330.909 89.51 333.159L90.27 333.039V319.159L89.51 319.039C88.76 321.299 87.49 322.89 85.72 323.75C83.88 324.67 81.8999 325.109 79.6499 325.109H67.3501V290.819H85.46C93.85 290.819 99.9 294.52 103.95 302.13L104.67 301.859L101.69 288.729H54.45L54.3301 289.49C56.2701 290.09 57.58 291.139 58.23 292.609C58.9 294.149 59.23 295.88 59.23 297.74V325.109H37.23C34.98 325.109 32.9899 324.66 31.1599 323.74C29.3999 322.88 28.1201 321.289 27.3801 319.029L26.6201 319.149V333.029L27.3801 333.149C28.1301 330.899 29.3999 329.319 31.1599 328.479C32.9999 327.599 34.99 327.169 37.24 327.169H59.24V355.63C59.24 357.49 58.9 359.25 58.24 360.87C57.59 362.42 56.3201 363.469 54.3501 364.079L54.47 364.839H102.25L105.43 351.74L104.7 351.469C102.76 355.189 100.06 358.029 96.6799 359.919H96.6699Z" fill="#FFFBF3"/>
</svg>
