<svg width="1080" height="196" viewBox="0 0 1080 196" fill="none" xmlns="http://www.w3.org/2000/svg">
<path d="M45.79 21.1505C46.22 21.3205 46.6701 21.4905 47.1101 21.6805C49.0301 22.4105 50.93 23.2404 52.79 24.1104C55.05 25.1604 57.27 26.2705 59.49 27.4405C61.3 28.4005 63.0999 29.4205 64.8899 30.4305C78.1499 38.0505 90.8699 47.1005 104.63 53.4205C106.51 54.2705 108.41 55.0804 110.33 55.8304C112.83 56.8104 115.37 57.6705 117.97 58.4105C119.83 58.9405 121.7 59.4104 123.61 59.7804C126.9 60.4604 130.29 60.9104 133.77 61.0804C150.14 61.8904 168.69 54.4605 175.52 38.9205C163.78 55.7005 142.35 58.5404 123.65 53.5804C119.59 52.5104 115.63 51.0404 111.95 49.2904C109.92 48.4204 107.92 47.4803 105.95 46.5103C93.8 40.4703 82.47 32.6203 70.54 26.0203C68.68 25.0003 66.7999 24.0104 64.8999 23.0304C62.6599 21.9004 60.38 20.8304 58.05 19.8304C56.07 18.9604 54.04 18.1605 51.99 17.4405C50.52 16.9105 49.05 16.4203 47.55 15.9703C32.01 11.2703 13.19 11.4203 0 21.7303C14.36 14.2803 31.18 15.7805 45.8 21.1705L45.79 21.1505Z" fill="#E0B382"/>
<path d="M26.6899 98.0103C27.0499 71.8003 38.0698 48.4103 55.1198 31.5203C52.8598 30.3703 50.6 29.2803 48.31 28.3003C21.61 54.8903 10.98 96.3703 28.05 135.85C48.97 184.9 107.47 208.18 156.46 187.57C164.04 184.56 171.14 180.53 177.59 175.7C171.85 179.86 162.44 183.32 155.82 186.01C93.99 211.96 25.3899 164.71 26.6899 98.0103Z" fill="#E0B382"/>
<path d="M119.37 0.0201544C98.1998 -0.339846 79.07 5.68016 63.36 16.0302C65.62 17.0602 67.86 18.1902 70.04 19.3602C94.25 3.33024 125.53 -1.70988 155.52 10.7401C190.35 24.5501 214.37 60.5601 214.03 98.0001C214.09 102.13 213.85 106.26 213.33 110.36C212.81 114.44 212.01 118.48 210.95 122.45C209.89 126.42 208.57 130.32 207.01 134.12C205.45 137.92 203.64 141.62 201.61 145.19C197.72 152.03 192.72 158.56 186.02 162.91C182.51 165.19 178.6 166.6 174.4 166.83C172.11 166.95 169.81 166.7 167.59 166.14C164.09 165.27 160.75 163.88 157.48 162.39C149.73 158.86 142.54 154.2 135.75 149.09C129.43 144.34 123.43 139.2 117.44 134.05C117.61 110.78 117.78 87.5101 117.94 64.2301C115.47 63.4601 112.99 62.6903 110.52 61.9203C111.13 85.0303 111.74 108.14 112.35 131.25C104.23 126.94 95.31 123.57 86.11 123.73C76.91 123.89 67.4 128.13 62.81 136.1C60.4 140.28 59.4698 145.24 59.8998 150.04C60.2998 154.5 61.87 158.88 64.6 162.43C71.8 171.8 86.2599 173.54 96.7299 168.07C107.2 162.6 113.78 151.38 116.06 139.79C124.73 147.78 133.99 155.13 143.74 161.76C150.42 166.3 158.48 168.76 166.47 169.54C173.69 170.25 181.48 168.8 187.8 164.96C194.05 161.17 198.27 155.03 202.07 148.95C206.37 142.07 209.84 134.67 212.33 126.95C214.83 119.21 216.34 111.15 216.74 103.02C216.82 101.34 216.83 99.6701 216.85 97.9901C217.47 44.8901 172.39 -0.0898652 119.35 0.000134827L119.37 0.0201544ZM111.17 140.49C108.35 152.53 99.9899 166.08 86.6899 168.03C73.8499 169.92 60.05 160.58 61.86 146.58C62.8 139.32 67.58 132.6 74.31 129.63C80.44 126.93 87.3299 126.9 93.7599 128.45C97.0399 129.24 100.21 130.43 103.25 131.89C104.32 132.4 111.98 135.91 111.85 136.81C111.68 138.05 111.45 139.27 111.17 140.48V140.49Z" fill="#E0B382"/>
<path d="M275.55 136.36C273.8 135.33 271.69 134.82 269.22 134.82H261.2V160.66H268.77C271.36 160.66 273.57 160.14 275.39 159.11C277.21 158.08 278.6 156.59 279.55 154.65C280.5 152.71 280.98 150.39 280.98 147.68C280.98 144.97 280.51 142.7 279.58 140.78C278.65 138.86 277.3 137.39 275.55 136.36ZM277.57 153.48C276.82 155.1 275.7 156.35 274.2 157.23C272.7 158.11 270.84 158.54 268.62 158.54H263.55V136.94H269.08C271.17 136.94 272.93 137.37 274.36 138.23C275.79 139.09 276.86 140.32 277.59 141.93C278.32 143.54 278.69 145.45 278.69 147.68C278.69 149.93 278.32 151.86 277.57 153.48Z" fill="#E0B382"/>
<path d="M299.7 134.82H297.34V160.66H299.7V134.82Z" fill="#E0B382"/>
<path d="M330.17 149.24C331.4 148.59 332.33 147.69 332.95 146.54C333.57 145.39 333.89 144.06 333.89 142.55C333.89 141.04 333.58 139.71 332.95 138.54C332.32 137.37 331.39 136.46 330.16 135.8C328.93 135.14 327.39 134.81 325.56 134.81H317.22V160.65H319.58V150.2H325.6C325.94 150.2 326.26 150.18 326.58 150.15L332.25 160.64H334.98L329.01 149.7C329.42 149.57 329.81 149.41 330.17 149.22V149.24ZM325.54 148.05H319.58V136.93H325.5C326.86 136.93 327.99 137.16 328.89 137.62C329.79 138.08 330.46 138.74 330.9 139.58C331.35 140.43 331.57 141.41 331.57 142.54C331.57 143.67 331.35 144.64 330.91 145.47C330.47 146.29 329.8 146.93 328.9 147.38C328 147.83 326.88 148.05 325.54 148.05Z" fill="#E0B382"/>
<path d="M352.66 148.78H364.5V146.66H352.66V136.94H365.29V134.82H350.3V160.66H365.54V158.54H352.66V148.78Z" fill="#E0B382"/>
<path d="M384.4 134.82H382.04V160.66H384.4V134.82Z" fill="#E0B382"/>
<path d="M400.36 136.94H408.55V160.66H410.91V136.94H419.1V134.82H400.36V136.94Z" fill="#E0B382"/>
<path d="M450.84 136.1C449.16 135.01 447.23 134.47 445.05 134.47C442.87 134.47 440.95 135.02 439.27 136.1C437.59 137.19 436.27 138.73 435.32 140.72C434.36 142.71 433.89 145.05 433.89 147.74C433.89 150.43 434.37 152.77 435.32 154.76C436.27 156.75 437.59 158.29 439.27 159.38C440.95 160.47 442.88 161.01 445.05 161.01C447.22 161.01 449.16 160.47 450.84 159.38C452.52 158.29 453.84 156.75 454.8 154.76C455.76 152.77 456.24 150.43 456.24 147.74C456.24 145.05 455.76 142.71 454.8 140.72C453.84 138.73 452.52 137.19 450.84 136.1ZM452.79 153.69C452.02 155.34 450.96 156.61 449.62 157.48C448.28 158.35 446.76 158.79 445.06 158.79C443.36 158.79 441.84 158.35 440.51 157.47C439.17 156.59 438.12 155.33 437.34 153.68C436.57 152.03 436.18 150.05 436.18 147.74C436.18 145.43 436.57 143.43 437.35 141.78C438.13 140.13 439.19 138.87 440.52 137.99C441.86 137.12 443.37 136.68 445.06 136.68C446.75 136.68 448.28 137.12 449.62 137.99C450.96 138.87 452.01 140.13 452.79 141.78C453.56 143.43 453.95 145.42 453.95 147.73C453.95 150.04 453.58 152.03 452.8 153.68L452.79 153.69Z" fill="#E0B382"/>
<path d="M495.61 134.82H493.25V160.66H495.61V134.82Z" fill="#E0B382"/>
<path d="M530.94 156.48H530.73L515.42 134.82H513.13V160.66H515.49V139.02H515.69L530.96 160.66H533.26V134.82H530.94V156.48Z" fill="#E0B382"/>
<path d="M549.22 136.94H557.4V160.66H559.76V136.94H567.95V134.82H549.22V136.94Z" fill="#E0B382"/>
<path d="M586.27 148.78H598.1V146.66H586.27V136.94H598.9V134.82H583.91V160.66H599.15V158.54H586.27V148.78Z" fill="#E0B382"/>
<path d="M628.6 149.24C629.83 148.59 630.75 147.69 631.38 146.54C632.01 145.39 632.32 144.06 632.32 142.55C632.32 141.04 632.01 139.71 631.38 138.54C630.75 137.37 629.82 136.46 628.59 135.8C627.36 135.14 625.82 134.81 623.99 134.81H615.65V160.65H618.01V150.2H624.03C624.37 150.2 624.69 150.18 625.01 150.15L630.68 160.64H633.4L627.43 149.7C627.84 149.57 628.23 149.41 628.59 149.22L628.6 149.24ZM623.97 148.05H618.01V136.93H623.93C625.29 136.93 626.42 137.16 627.32 137.62C628.22 138.08 628.89 138.74 629.33 139.58C629.78 140.43 630 141.41 630 142.54C630 143.67 629.78 144.64 629.34 145.47C628.9 146.29 628.23 146.93 627.33 147.38C626.43 147.83 625.31 148.05 623.97 148.05Z" fill="#E0B382"/>
<path d="M666.53 156.48H666.33L651.01 134.82H648.73V160.66H651.09V139.02H651.29L666.56 160.66H668.85V134.82H666.53V156.48Z" fill="#E0B382"/>
<path d="M693.34 134.82L683.94 160.66H686.41L689.18 152.88H700.02L702.79 160.66H705.26L695.86 134.82H693.34ZM689.94 150.75L694.52 137.88H694.7L699.28 150.75H689.95H689.94Z" fill="#E0B382"/>
<path d="M725.9 137.96C727.24 137.11 728.73 136.69 730.36 136.69C731.38 136.69 732.32 136.85 733.2 137.16C734.07 137.47 734.86 137.91 735.55 138.47C736.24 139.03 736.81 139.69 737.27 140.44C737.73 141.19 738.05 142.01 738.22 142.89H740.59C740.38 141.7 739.99 140.59 739.41 139.57C738.83 138.55 738.1 137.66 737.21 136.89C736.32 136.12 735.3 135.52 734.15 135.1C733 134.68 731.73 134.46 730.35 134.46C728.18 134.46 726.25 135.01 724.57 136.09C722.89 137.18 721.57 138.72 720.61 140.7C719.66 142.68 719.18 145.03 719.18 147.73C719.18 150.43 719.66 152.77 720.61 154.76C721.56 156.75 722.88 158.28 724.57 159.37C726.25 160.46 728.18 161 730.35 161C731.73 161 733 160.79 734.15 160.36C735.3 159.93 736.32 159.33 737.21 158.57C738.1 157.8 738.83 156.91 739.41 155.89C739.98 154.87 740.38 153.76 740.59 152.58H738.22C738.04 153.46 737.73 154.28 737.27 155.04C736.81 155.8 736.24 156.46 735.55 157.01C734.86 157.57 734.08 158 733.2 158.32C732.32 158.63 731.38 158.79 730.36 158.79C728.73 158.79 727.24 158.37 725.9 157.52C724.56 156.67 723.49 155.43 722.68 153.79C721.88 152.15 721.47 150.13 721.47 147.73C721.47 145.33 721.87 143.34 722.68 141.69C723.48 140.05 724.55 138.8 725.9 137.95V137.96Z" fill="#E0B382"/>
<path d="M759.16 134.82H756.8V160.66H759.16V134.82Z" fill="#E0B382"/>
<path d="M792.47 136.1C790.79 135.01 788.86 134.47 786.68 134.47C784.5 134.47 782.58 135.02 780.9 136.1C779.22 137.19 777.9 138.73 776.94 140.72C775.99 142.71 775.51 145.05 775.51 147.74C775.51 150.43 775.99 152.77 776.94 154.76C777.89 156.75 779.21 158.29 780.89 159.38C782.57 160.47 784.5 161.01 786.68 161.01C788.86 161.01 790.79 160.47 792.47 159.38C794.15 158.29 795.47 156.75 796.43 154.76C797.39 152.77 797.87 150.43 797.87 147.74C797.87 145.05 797.39 142.71 796.43 140.72C795.47 138.73 794.15 137.19 792.47 136.1ZM794.42 153.69C793.64 155.34 792.59 156.61 791.25 157.48C789.91 158.35 788.39 158.79 786.69 158.79C784.99 158.79 783.47 158.35 782.14 157.47C780.8 156.59 779.75 155.33 778.97 153.68C778.2 152.03 777.81 150.05 777.81 147.74C777.81 145.43 778.2 143.43 778.98 141.78C779.76 140.13 780.81 138.87 782.15 137.99C783.49 137.12 785 136.68 786.69 136.68C788.38 136.68 789.91 137.12 791.25 137.99C792.59 138.87 793.64 140.13 794.42 141.78C795.19 143.43 795.58 145.42 795.58 147.73C795.58 150.04 795.21 152.03 794.43 153.68L794.42 153.69Z" fill="#E0B382"/>
<path d="M832.03 156.48H831.83L816.51 134.82H814.23V160.66H816.59V139.02H816.79L832.06 160.66H834.35V134.82H832.03V156.48Z" fill="#E0B382"/>
<path d="M858.84 134.82L849.44 160.66H851.91L854.68 152.88H865.52L868.29 160.66H870.76L861.36 134.82H858.84ZM855.44 150.75L860.02 137.88H860.2L864.78 150.75H855.45H855.44Z" fill="#E0B382"/>
<path d="M888.21 158.54V134.82H885.85V160.66H900.53V158.54H888.21Z" fill="#E0B382"/>
<path d="M386.14 87.8101L374.61 69.78C376.67 69.34 378.61 68.65 380.38 67.72C382.22 66.76 383.84 65.5401 385.22 64.0801C386.59 62.6301 387.68 60.91 388.45 58.99C389.22 57.07 389.61 54.95 389.61 52.7C389.61 49.52 388.97 46.77 387.7 44.55C386.43 42.32 384.74 40.4901 382.65 39.0901C380.57 37.6901 378.16 36.66 375.51 36.03C372.86 35.4 370.1 35.0801 367.31 35.0801H347.87L347.82 35.3701C349.3 35.8501 350.32 36.6801 350.85 37.8301C351.39 39.0101 351.66 40.34 351.66 41.79V85.9202C351.66 87.3102 351.39 88.6602 350.85 89.9202C350.32 91.1602 349.31 92.03 347.82 92.5L347.87 92.79H361.32L361.37 92.5C359.99 92.02 359 91.19 358.42 90.03C357.83 88.86 357.53 87.5502 357.53 86.1602L357.5 79.4402C358.96 77.2802 360.69 75.61 362.66 74.48C364.6 73.36 366.78 72.3302 369.13 71.4202L382.89 92.79H392.08L392.13 92.5C390.95 92.07 389.82 91.4401 388.77 90.6401C387.72 89.8301 386.83 88.8801 386.14 87.8101ZM367.87 70.4402C365.93 71.2602 364.02 72.21 362.19 73.28C360.46 74.28 358.9 75.63 357.53 77.29V36.3601H366.98C372.05 36.3601 376.09 37.82 378.97 40.7C381.85 43.58 383.32 47.6202 383.32 52.6902C383.32 55.7202 382.87 58.2201 381.98 60.1301C381.09 62.0401 379.92 63.6401 378.49 64.8801C377.06 66.1201 375.4 67.16 373.56 67.97C371.7 68.79 369.8 69.6102 367.86 70.4302L367.87 70.4402Z" fill="#FFFBF3"/>
<path d="M436.54 35.0801L436.5 35.3701C438.21 35.9101 439.6 36.77 440.61 37.95C441.62 39.12 442.13 40.63 442.13 42.45V81.03L409.31 35.0801H398.98L398.93 35.3701C400.65 35.9601 402.02 36.8701 403.01 38.0701C403.99 39.2701 404.49 40.8202 404.49 42.6902V85.4202C404.49 87.2302 403.98 88.7502 402.97 89.9202C401.95 91.1002 400.57 91.97 398.86 92.5L398.9 92.79H411.37L411.41 92.5C409.69 91.96 408.28 91.11 407.21 89.96C406.15 88.82 405.61 87.2902 405.61 85.4302V40.04L443.42 93.1101V42.45C443.42 40.64 443.91 39.12 444.86 37.95C445.82 36.77 447.18 35.9101 448.89 35.3701L448.85 35.0801H436.55H436.54Z" fill="#FFFBF3"/>
<path d="M497.56 90.0103C496.67 88.7703 495.97 87.4804 495.49 86.1904L475.75 34.0703L455.76 86.3503C455.28 87.5303 454.46 88.7602 453.33 90.0002C452.2 91.2302 451.01 92.0802 449.78 92.5002L449.83 92.7903H461.81L461.86 92.5002C460.63 92.0702 459.56 91.4504 458.67 90.6404C457.8 89.8504 457.37 88.7604 457.37 87.3904C457.37 86.8004 457.44 86.2204 457.57 85.6604C457.7 85.1004 457.88 84.5402 458.1 84.0002L463.4 70.2302H483.3C483.63 71.0002 484.12 72.2104 484.78 73.8704C485.46 75.5904 486.17 77.4003 486.91 79.2803C487.64 81.1503 488.29 82.9303 488.83 84.5603C489.37 86.1803 489.64 87.2904 489.64 87.8804C489.64 88.8304 489.33 89.7704 488.72 90.6704C488.11 91.5704 487.35 92.1802 486.46 92.5002L486.51 92.7903H500.95L500.99 92.5002C499.61 92.0802 498.46 91.2403 497.58 90.0103H497.56ZM463.74 69.0403L473.28 44.0203L482.66 69.0403H463.73H463.74Z" fill="#FFFBF3"/>
<path d="M542.76 35.0801L542.72 35.3701C544.43 35.9101 545.82 36.77 546.83 37.95C547.84 39.12 548.35 40.63 548.35 42.45V81.03L515.53 35.0801H505.2L505.15 35.3701C506.87 35.9601 508.24 36.8701 509.23 38.0701C510.21 39.2701 510.71 40.8202 510.71 42.6902V85.4202C510.71 87.2302 510.2 88.7502 509.19 89.9202C508.17 91.1002 506.79 91.97 505.08 92.5L505.12 92.79H517.59L517.63 92.5C515.91 91.96 514.5 91.11 513.43 89.96C512.37 88.82 511.83 87.2902 511.83 85.4302V40.04L549.64 93.1101V42.45C549.64 40.64 550.13 39.12 551.08 37.95C552.04 36.77 553.4 35.9101 555.11 35.3701L555.07 35.0801H542.77H542.76Z" fill="#FFFBF3"/>
<path d="M611.64 63.9402C611.64 60.0002 610.85 56.23 609.29 52.72C607.73 49.22 605.61 46.13 602.98 43.53C600.35 40.93 597.23 38.8501 593.71 37.3501C590.18 35.8401 586.39 35.0801 582.46 35.0801H561.3L561.26 35.3701C562.74 35.7901 563.75 36.6301 564.28 37.8701C564.82 39.1301 565.09 40.4801 565.09 41.8701V86C565.09 87.4 564.83 88.74 564.32 90C563.82 91.23 562.79 92.07 561.26 92.5L561.3 92.79H583.45C587.45 92.79 591.21 92.03 594.62 90.52C598.04 89.02 601.05 86.92 603.57 84.29C606.09 81.66 608.08 78.5701 609.51 75.1001C610.93 71.6301 611.65 67.8702 611.65 63.9302L611.64 63.9402ZM603.07 75.28C601.77 78.63 599.91 81.5402 597.53 83.9202C595.15 86.3002 592.24 88.16 588.89 89.46C585.53 90.76 581.71 91.4202 577.54 91.4202H570.96V36.3501H577.54C581.71 36.3501 585.54 37.0101 588.93 38.3101C592.31 39.6101 595.23 41.4701 597.61 43.8501C599.99 46.2301 601.84 49.15 603.11 52.53C604.38 55.92 605.03 59.7502 605.03 63.9202C605.03 68.0902 604.37 71.91 603.07 75.27V75.28Z" fill="#FFFBF3"/>
<path d="M657.26 90.0103C656.37 88.7703 655.67 87.4804 655.19 86.1904L635.45 34.0703L615.46 86.3503C614.98 87.5303 614.16 88.7602 613.03 90.0002C611.9 91.2302 610.71 92.0802 609.48 92.5002L609.53 92.7903H621.51L621.56 92.5002C620.33 92.0702 619.26 91.4504 618.37 90.6404C617.5 89.8504 617.07 88.7604 617.07 87.3904C617.07 86.8004 617.14 86.2204 617.27 85.6604C617.4 85.1004 617.58 84.5402 617.8 84.0002L623.1 70.2302H643C643.33 71.0002 643.82 72.2104 644.48 73.8704C645.16 75.5904 645.87 77.4003 646.61 79.2803C647.34 81.1503 647.99 82.9303 648.53 84.5603C649.07 86.1803 649.34 87.2904 649.34 87.8804C649.34 88.8304 649.03 89.7704 648.42 90.6704C647.81 91.5704 647.05 92.1802 646.16 92.5002L646.21 92.7903H660.65L660.69 92.5002C659.31 92.0802 658.16 91.2403 657.28 90.0103H657.26ZM623.44 69.0403L632.98 44.0203L642.36 69.0403H623.43H623.44Z" fill="#FFFBF3"/>
<path d="M689.7 35.0803L687.62 44.6304L687.9 44.7302C689.25 42.2502 691.03 40.2402 693.19 38.7502C695.34 37.2702 697.91 36.5203 700.82 36.5203H707.64L707.56 85.9104C707.56 87.3604 707.3 88.7202 706.79 89.9502C706.29 91.1602 705.26 92.0102 703.72 92.4902L703.76 92.7803H717.21L717.26 92.4902C715.78 92.0102 714.76 91.1404 714.23 89.9104C713.69 88.6504 713.42 87.3004 713.42 85.9104V36.5203H720.41C723.21 36.5203 725.76 37.2702 728 38.7502C730.24 40.2302 732.03 42.2204 733.32 44.6404L733.6 44.5403L731.44 35.0703H689.7V35.0803Z" fill="#FFFBF3"/>
<path d="M772.76 89.3201C770.17 90.7801 767.24 91.52 764.06 91.52H750.18V64.0901H759.71C761.43 64.0901 763.01 64.4301 764.4 65.1001C765.78 65.7601 766.77 66.99 767.36 68.74L767.65 68.6902V58.1101L767.36 58.0601C766.77 59.8201 765.78 61.06 764.4 61.75C763.01 62.45 761.43 62.8 759.71 62.8H750.18V36.3601H764.14C770.5 36.3601 775.29 39.2901 778.36 45.0601L778.64 44.96L776.4 35.0801H740.52L740.48 35.3701C742.01 35.8501 743.05 36.6701 743.55 37.8301C744.06 39.0101 744.32 40.34 744.32 41.79V85.9202C744.32 87.3702 744.06 88.73 743.55 89.96C743.05 91.17 742.02 92.02 740.48 92.5L740.52 92.79H776.81L779.22 82.9202L778.94 82.8201C777.43 85.6801 775.35 87.8701 772.77 89.3201H772.76Z" fill="#FFFBF3"/>
<path d="M835.77 43.3201C833.14 40.6901 830.02 38.6001 826.5 37.1001C822.97 35.5901 819.16 34.8301 815.16 34.8301C811.16 34.8301 807.35 35.5901 803.82 37.1001C800.29 38.6001 797.17 40.7001 794.55 43.3201C791.92 45.9501 789.83 49.0701 788.33 52.5901C786.83 56.1201 786.06 59.9302 786.06 63.9302C786.06 67.9302 786.82 71.74 788.33 75.27C789.83 78.8 791.93 81.92 794.55 84.54C797.18 87.17 800.3 89.26 803.82 90.76C807.35 92.27 811.16 93.03 815.16 93.03C819.16 93.03 822.97 92.27 826.5 90.76C830.03 89.26 833.15 87.16 835.77 84.54C838.39 81.92 840.49 78.8 841.99 75.27C843.49 71.74 844.26 67.9202 844.26 63.9302C844.26 59.9402 843.5 56.1301 841.99 52.5901C840.48 49.0601 838.39 45.9401 835.77 43.3201ZM836.42 74.5601C835.5 77.7101 834.12 80.6002 832.34 83.1702C830.56 85.7402 828.34 87.86 825.74 89.49C823.15 91.11 820.12 91.9302 816.71 91.9302C813.09 91.9302 809.78 91.01 806.86 89.2C803.93 87.38 801.4 85.0202 799.32 82.1802C797.23 79.3302 795.61 76.1302 794.5 72.6702C793.39 69.2002 792.83 65.79 792.83 62.54C792.83 59.56 793.3 56.4701 794.22 53.3501C795.14 50.2401 796.51 47.36 798.3 44.78C800.09 42.21 802.32 40.08 804.94 38.46C807.56 36.84 810.58 36.02 813.92 36.02C817.59 36.02 820.95 36.92 823.89 38.71C826.84 40.49 829.38 42.8301 831.43 45.6401C833.49 48.4601 835.08 51.6401 836.16 55.1101C837.24 58.5801 837.79 62.0201 837.79 65.3201C837.79 68.3001 837.32 71.4 836.4 74.55L836.42 74.5601Z" fill="#FFFBF3"/>
<path d="M891.87 43.53C889.24 40.93 886.12 38.8501 882.6 37.3501C879.07 35.8401 875.28 35.0801 871.35 35.0801H850.19L850.15 35.3701C851.63 35.7901 852.65 36.6301 853.17 37.8701C853.71 39.1301 853.98 40.4801 853.98 41.8701V86C853.98 87.4 853.72 88.74 853.21 90C852.71 91.23 851.68 92.07 850.15 92.5L850.19 92.79H872.34C876.33 92.79 880.09 92.03 883.51 90.52C886.93 89.02 889.94 86.92 892.46 84.29C894.98 81.66 896.97 78.5701 898.4 75.1001C899.82 71.6301 900.54 67.8702 900.54 63.9302C900.54 59.9902 899.75 56.22 898.19 52.71C896.63 49.21 894.51 46.12 891.88 43.52L891.87 43.53ZM891.95 75.28C890.65 78.64 888.79 81.5402 886.4 83.9202C884.02 86.3002 881.11 88.16 877.76 89.46C874.4 90.76 870.58 91.4202 866.41 91.4202H859.83V36.3501H866.41C870.58 36.3501 874.42 37.0101 877.8 38.3101C881.18 39.6101 884.1 41.4701 886.48 43.8501C888.86 46.2301 890.71 49.15 891.98 52.53C893.25 55.92 893.9 59.7502 893.9 63.9202C893.9 68.0902 893.24 71.91 891.94 75.27L891.95 75.28Z" fill="#FFFBF3"/>
<path d="M956.42 43.3201C953.79 40.6901 950.67 38.6001 947.15 37.1001C943.62 35.5901 939.81 34.8301 935.81 34.8301C931.81 34.8301 928 35.5901 924.47 37.1001C920.94 38.6001 917.82 40.7001 915.2 43.3201C912.57 45.9501 910.48 49.0701 908.98 52.5901C907.48 56.1201 906.71 59.9302 906.71 63.9302C906.71 67.9302 907.47 71.74 908.98 75.27C910.48 78.8 912.58 81.92 915.2 84.54C917.83 87.17 920.95 89.26 924.47 90.76C928 92.27 931.81 93.03 935.81 93.03C939.81 93.03 943.62 92.27 947.15 90.76C950.68 89.26 953.8 87.16 956.42 84.54C959.04 81.92 961.14 78.8 962.64 75.27C964.14 71.74 964.91 67.9202 964.91 63.9302C964.91 59.9402 964.15 56.1301 962.64 52.5901C961.13 49.0601 959.04 45.9401 956.42 43.3201ZM957.07 74.5601C956.15 77.7101 954.77 80.6002 952.99 83.1702C951.21 85.7402 948.99 87.86 946.39 89.49C943.8 91.11 940.77 91.9302 937.36 91.9302C933.74 91.9302 930.43 91.01 927.51 89.2C924.58 87.38 922.05 85.0202 919.97 82.1802C917.88 79.3302 916.26 76.1302 915.15 72.6702C914.04 69.2002 913.48 65.79 913.48 62.54C913.48 59.56 913.95 56.4701 914.87 53.3501C915.79 50.2401 917.16 47.36 918.95 44.78C920.74 42.21 922.97 40.08 925.59 38.46C928.21 36.84 931.23 36.02 934.57 36.02C938.24 36.02 941.6 36.92 944.54 38.71C947.49 40.49 950.03 42.8301 952.08 45.6401C954.14 48.4601 955.73 51.6401 956.81 55.1101C957.89 58.5801 958.44 62.0201 958.44 65.3201C958.44 68.3001 957.97 71.4 957.05 74.55L957.07 74.5601Z" fill="#FFFBF3"/>
<path d="M1011.81 90.6301C1010.77 89.8301 1009.88 88.87 1009.18 87.8L997.65 69.77C999.7 69.34 1001.65 68.64 1003.42 67.72C1005.26 66.75 1006.89 65.5301 1008.27 64.0801C1009.64 62.6201 1010.72 60.91 1011.5 58.99C1012.26 57.07 1012.65 54.94 1012.65 52.7C1012.65 49.52 1012.01 46.78 1010.75 44.55C1009.49 42.32 1007.79 40.4901 1005.71 39.0901C1003.63 37.6901 1001.22 36.67 998.57 36.03C995.91 35.41 993.16 35.0801 990.37 35.0801H970.93L970.89 35.3801C972.38 35.8601 973.39 36.6901 973.91 37.8501C974.45 39.0301 974.73 40.3501 974.73 41.8101V85.9302C974.73 87.3302 974.45 88.6702 973.91 89.9302C973.39 91.1602 972.38 92.04 970.89 92.52L970.93 92.8H984.38L984.44 92.52C983.06 92.04 982.06 91.21 981.48 90.05C980.9 88.87 980.6 87.5702 980.6 86.1802L980.57 79.4402C982.03 77.2802 983.77 75.62 985.73 74.49C987.66 73.37 989.85 72.3502 992.2 71.4302L1005.95 92.8101H1015.14L1015.18 92.53C1014.01 92.1 1012.87 91.4702 1011.82 90.6602L1011.81 90.6301ZM990.91 70.45C988.98 71.27 987.06 72.22 985.24 73.29C983.51 74.29 981.94 75.64 980.58 77.29V36.3701H990.03C995.1 36.3701 999.13 37.83 1002.02 40.71C1004.91 43.6 1006.36 47.63 1006.36 52.7C1006.36 55.72 1005.91 58.2301 1005.02 60.1401C1004.13 62.0601 1002.95 63.6501 1001.52 64.8901C1000.09 66.1401 998.44 67.18 996.6 67.98C994.74 68.8 992.85 69.63 990.9 70.45H990.91Z" fill="#FFFBF3"/>
<path d="M1077.72 52.6003C1076.21 49.0703 1074.12 45.9503 1071.5 43.3303C1068.87 40.7003 1065.75 38.6104 1062.23 37.1104C1058.7 35.6004 1054.89 34.8403 1050.89 34.8403C1046.89 34.8403 1043.08 35.6004 1039.55 37.1104C1036.02 38.6104 1032.9 40.7103 1030.28 43.3303C1027.65 45.9603 1025.56 49.0803 1024.06 52.6003C1022.56 56.1303 1021.79 59.9404 1021.79 63.9404C1021.79 67.9404 1022.55 71.7503 1024.06 75.2803C1025.56 78.8103 1027.66 81.9303 1030.28 84.5503C1032.91 87.1803 1036.03 89.2703 1039.55 90.7703C1043.08 92.2803 1046.89 93.0403 1050.89 93.0403C1054.89 93.0403 1058.7 92.2803 1062.23 90.7703C1065.76 89.2703 1068.88 87.1703 1071.5 84.5503C1074.12 81.9303 1076.22 78.8103 1077.72 75.2803C1079.22 71.7503 1079.99 67.9304 1079.99 63.9404C1079.99 59.9504 1079.23 56.1403 1077.72 52.6003ZM1072.15 74.5603C1071.23 77.7103 1069.85 80.6004 1068.07 83.1704C1066.29 85.7404 1064.07 87.8602 1061.47 89.4902C1058.88 91.1102 1055.85 91.9304 1052.44 91.9304C1048.82 91.9304 1045.51 91.0102 1042.59 89.2002C1039.66 87.3802 1037.13 85.0204 1035.05 82.1804C1032.96 79.3304 1031.34 76.1304 1030.23 72.6704C1029.12 69.2004 1028.56 65.7903 1028.56 62.5403C1028.56 59.5603 1029.03 56.4703 1029.95 53.3503C1030.87 50.2403 1032.24 47.3603 1034.03 44.7803C1035.82 42.2103 1038.05 40.0802 1040.67 38.4602C1043.29 36.8402 1046.31 36.0203 1049.65 36.0203C1053.32 36.0203 1056.68 36.9202 1059.62 38.7102C1062.57 40.4902 1065.11 42.8304 1067.16 45.6404C1069.22 48.4604 1070.81 51.6404 1071.89 55.1104C1072.97 58.5804 1073.52 62.0203 1073.52 65.3203C1073.52 68.3003 1073.05 71.4003 1072.13 74.5503L1072.15 74.5603Z" fill="#FFFBF3"/>
<path d="M271.87 89.77C271.31 88.55 271.04 87.2801 271.04 85.8801V36.6602H284.77C291.05 36.6602 295.77 39.54 298.79 45.23L299.34 45.03L297.1 35.0801H261.29L261.2 35.6602C262.67 36.1202 263.67 36.92 264.15 38.03C264.65 39.19 264.9 40.4602 264.9 41.9202V85.8101C264.9 87.2401 264.65 88.58 264.15 89.78C263.67 90.94 262.67 91.76 261.2 92.22L261.29 92.8H274.67L274.76 92.22C273.38 91.76 272.41 90.94 271.87 89.77Z" fill="#FFFBF3"/>
<path d="M334.48 89.0601C331.92 90.5001 329.03 91.23 325.89 91.23H312.25V64.24H321.57C323.28 64.24 324.78 64.56 326.18 65.23C327.52 65.87 328.48 67.06 329.05 68.77L329.63 68.6802V58.1602L329.05 58.0701C328.48 59.7901 327.52 60.9901 326.18 61.6401C324.79 62.3401 323.28 62.6702 321.58 62.6702H312.26V36.6702H325.99C332.35 36.6702 336.93 39.47 340.01 45.24L340.56 45.03L338.3 35.0801H302.49L302.4 35.6602C303.87 36.1102 304.87 36.91 305.35 38.03C305.85 39.2 306.11 40.5102 306.11 41.9202V62.6702H289.43C287.72 62.6702 286.22 62.3301 284.83 61.6301C283.49 60.9801 282.53 59.7701 281.96 58.0601L281.38 58.1501V68.6702L281.96 68.76C282.53 67.05 283.49 65.86 284.83 65.22C286.22 64.55 287.73 64.23 289.44 64.23H306.12V85.8101C306.12 87.2201 305.86 88.55 305.36 89.78C304.87 90.96 303.9 91.75 302.41 92.22L302.5 92.8H338.72L341.13 82.8701L340.58 82.6602C339.11 85.4802 337.06 87.6301 334.5 89.0701L334.48 89.0601Z" fill="#FFFBF3"/>
</svg>
